<svg xmlns="http://www.w3.org/2000/svg" xmlns:xlink="http://www.w3.org/1999/xlink" width="2000" zoomAndPan="magnify" viewBox="0 0 1500 1499.999933" height="2000" preserveAspectRatio="xMidYMid meet" version="1.0"><defs><g/><clipPath id="d6c74723b6"><path d="M 0 0.296875 L 1500 0.296875 L 1500 1490 L 0 1490 Z M 0 0.296875 " clip-rule="nonzero"/></clipPath><clipPath id="ca39034bc3"><path d="M 0 0.296875 L 1500 0.296875 L 1500 1490 L 0 1490 Z M 0 0.296875 " clip-rule="nonzero"/></clipPath><clipPath id="6659970418"><rect x="0" width="1500" y="0" height="1490"/></clipPath><clipPath id="3999b1dca3"><rect x="0" width="1301" y="0" height="1293"/></clipPath><clipPath id="a91e08622d"><rect x="0" width="1080" y="0" height="1279"/></clipPath><clipPath id="83879fc5f2"><rect x="0" width="1500" y="0" height="1490"/></clipPath></defs><g transform="matrix(1, 0, 0, 1, 0, 10)"><g clip-path="url(#83879fc5f2)"><g clip-path="url(#d6c74723b6)"><g transform="matrix(1, 0, 0, 1, 0, 0.00000000000011191)"><g clip-path="url(#6659970418)"><g clip-path="url(#ca39034bc3)"><path fill="#d43429" d="M -31.214844 0.296875 L 1545.773438 0.296875 L 1545.773438 1490 L -31.214844 1490 Z M -31.214844 0.296875 " fill-opacity="1" fill-rule="nonzero"/></g></g></g></g><g transform="matrix(1, 0, 0, 1, 199, 19)"><g clip-path="url(#3999b1dca3)"><g fill="#000000" fill-opacity="0"><g transform="translate(1.099058, 1014.314257)"><g><path d="M 523.90625 0 L 523.90625 -663.085938 L 25.847656 -663.085938 L 25.847656 0 L 191.867188 0 L 191.867188 110.347656 L 357.886719 110.347656 L 357.886719 0 Z M 357.886719 -151.109375 L 191.867188 -151.109375 L 191.867188 -510.984375 L 357.886719 -510.984375 Z M 357.886719 -151.109375 "/></g></g></g><g fill="#000000" fill-opacity="0"><g transform="translate(550.853575, 1014.314257)"><g><path d="M 517.941406 0 L 517.941406 -260.460938 L 444.378906 -333.035156 L 517.941406 -406.601562 L 517.941406 -663.085938 L 351.921875 -663.085938 L 351.921875 -406.601562 L 185.902344 -406.601562 L 185.902344 -663.085938 L 19.882812 -663.085938 L 19.882812 -406.601562 L 93.449219 -333.035156 L 19.882812 -260.460938 L 19.882812 0 L 185.902344 0 L 185.902344 -260.460938 L 351.921875 -260.460938 L 351.921875 0 Z M 517.941406 0 "/></g></g></g><g fill="#000000" fill-opacity="1"><g transform="translate(1.099058, 1014.314257)"><g><path d="M 508.996094 0 L 508.996094 -663.085938 L 523.90625 -663.085938 L 523.90625 -648.175781 L 25.847656 -648.175781 L 25.847656 -663.085938 L 40.757812 -663.085938 L 40.757812 0 L 25.847656 0 L 25.847656 -14.910156 L 206.78125 -14.910156 L 206.78125 110.347656 L 191.867188 110.347656 L 191.867188 95.4375 L 357.886719 95.4375 L 357.886719 110.347656 L 342.976562 110.347656 L 342.976562 -14.910156 L 523.90625 -14.910156 L 523.90625 0 Z M 538.820312 14.910156 L 357.886719 14.910156 L 357.886719 0 L 372.800781 0 L 372.800781 125.261719 L 176.957031 125.261719 L 176.957031 0 L 191.867188 0 L 191.867188 14.910156 L 10.933594 14.910156 L 10.933594 -678 L 538.820312 -678 Z M 357.886719 -136.195312 L 176.957031 -136.195312 L 176.957031 -525.894531 L 372.800781 -525.894531 L 372.800781 -136.195312 Z M 357.886719 -166.019531 L 357.886719 -151.109375 L 342.976562 -151.109375 L 342.976562 -510.984375 L 357.886719 -510.984375 L 357.886719 -496.074219 L 191.867188 -496.074219 L 191.867188 -510.984375 L 206.78125 -510.984375 L 206.78125 -151.109375 L 191.867188 -151.109375 L 191.867188 -166.019531 Z M 357.886719 -166.019531 "/></g></g></g><g fill="#000000" fill-opacity="1"><g transform="translate(550.853575, 1014.314257)"><g><path d="M 503.03125 0 L 503.03125 -260.460938 L 517.941406 -260.460938 L 507.472656 -249.847656 L 423.214844 -332.960938 L 507.398438 -417.144531 L 517.941406 -406.601562 L 503.03125 -406.601562 L 503.03125 -663.085938 L 517.941406 -663.085938 L 517.941406 -648.175781 L 351.921875 -648.175781 L 351.921875 -663.085938 L 366.835938 -663.085938 L 366.835938 -391.6875 L 170.992188 -391.6875 L 170.992188 -663.085938 L 185.902344 -663.085938 L 185.902344 -648.175781 L 19.882812 -648.175781 L 19.882812 -663.085938 L 34.792969 -663.085938 L 34.792969 -406.601562 L 19.882812 -406.601562 L 30.425781 -417.144531 L 114.609375 -332.960938 L 30.355469 -249.847656 L 19.882812 -260.460938 L 34.792969 -260.460938 L 34.792969 0 L 19.882812 0 L 19.882812 -14.910156 L 185.902344 -14.910156 L 185.902344 0 L 170.992188 0 L 170.992188 -275.375 L 366.835938 -275.375 L 366.835938 0 L 351.921875 0 L 351.921875 -14.910156 L 517.941406 -14.910156 L 517.941406 0 Z M 532.855469 14.910156 L 337.011719 14.910156 L 337.011719 -260.460938 L 351.921875 -260.460938 L 351.921875 -245.550781 L 185.902344 -245.550781 L 185.902344 -260.460938 L 200.816406 -260.460938 L 200.816406 14.910156 L 4.96875 14.910156 L 4.96875 -266.699219 L 82.976562 -343.648438 L 93.449219 -333.035156 L 82.902344 -322.488281 L 4.96875 -400.421875 L 4.96875 -678 L 200.816406 -678 L 200.816406 -406.601562 L 185.902344 -406.601562 L 185.902344 -421.511719 L 351.921875 -421.511719 L 351.921875 -406.601562 L 337.011719 -406.601562 L 337.011719 -678 L 532.855469 -678 L 532.855469 -400.421875 L 454.921875 -322.488281 L 444.378906 -333.035156 L 454.851562 -343.648438 L 532.855469 -266.699219 Z M 532.855469 14.910156 "/></g></g></g><g fill="#000000" fill-opacity="0"><g transform="translate(1088.690808, 1014.314257)"><g/></g></g><g fill="#000000" fill-opacity="1"><g transform="translate(1088.690808, 1014.314257)"><g/></g></g><g fill="#fefefe" fill-opacity="1"><g transform="translate(1.099058, 1014.314257)"><g><path d="M 523.90625 0 L 523.90625 -663.085938 L 25.847656 -663.085938 L 25.847656 0 L 191.867188 0 L 191.867188 110.347656 L 357.886719 110.347656 L 357.886719 0 Z M 357.886719 -151.109375 L 191.867188 -151.109375 L 191.867188 -510.984375 L 357.886719 -510.984375 Z M 357.886719 -151.109375 "/></g></g></g><g fill="#fefefe" fill-opacity="1"><g transform="translate(550.853575, 1014.314257)"><g><path d="M 517.941406 0 L 517.941406 -260.460938 L 444.378906 -333.035156 L 517.941406 -406.601562 L 517.941406 -663.085938 L 351.921875 -663.085938 L 351.921875 -406.601562 L 185.902344 -406.601562 L 185.902344 -663.085938 L 19.882812 -663.085938 L 19.882812 -406.601562 L 93.449219 -333.035156 L 19.882812 -260.460938 L 19.882812 0 L 185.902344 0 L 185.902344 -260.460938 L 351.921875 -260.460938 L 351.921875 0 Z M 517.941406 0 "/></g></g></g><g fill="#fefefe" fill-opacity="1"><g transform="translate(1088.690808, 1014.314257)"><g/></g></g></g></g><g transform="matrix(1, 0, 0, 1, 185, 12)"><g clip-path="url(#a91e08622d)"><g fill="#000000" fill-opacity="1"><g transform="translate(1.479199, 1001.43162)"><g><path d="M 518.257812 0 L 518.257812 -655.9375 L 25.570312 -655.9375 L 25.570312 0 L 189.796875 0 L 189.796875 109.160156 L 354.027344 109.160156 L 354.027344 0 Z M 354.027344 -149.480469 L 189.796875 -149.480469 L 189.796875 -505.472656 L 354.027344 -505.472656 Z M 354.027344 -149.480469 "/></g></g></g><g fill="#000000" fill-opacity="1"><g transform="translate(546.288982, 1001.43162)"><g><path d="M 512.359375 0 L 512.359375 -257.652344 L 439.585938 -329.441406 L 512.359375 -402.214844 L 512.359375 -655.9375 L 348.128906 -655.9375 L 348.128906 -402.214844 L 183.898438 -402.214844 L 183.898438 -655.9375 L 19.667969 -655.9375 L 19.667969 -402.214844 L 92.441406 -329.441406 L 19.667969 -257.652344 L 19.667969 0 L 183.898438 0 L 183.898438 -257.652344 L 348.128906 -257.652344 L 348.128906 0 Z M 512.359375 0 "/></g></g></g></g></g></g></g></svg>